<?xml version="1.0" encoding="UTF-8"?>
<svg width="524px" height="192px" viewBox="0 0 524 192" version="1.1" xmlns="http://www.w3.org/2000/svg" xmlns:xlink="http://www.w3.org/1999/xlink">
    <!-- Generator: Sketch 51.3 (57544) - http://www.bohemiancoding.com/sketch -->
    <title>App Store</title>
    <desc>Created with Sketch.</desc>
    <defs></defs>
    <g id="Page-1" stroke="none" stroke-width="1" fill="none" fill-rule="evenodd">
        <g id="Badges" transform="translate(-138.000000, -320.000000)">
            <g id="App-Store" transform="translate(138.000000, 320.000000)">
                <rect id="btn" fill="#000000" x="0" y="0" width="524" height="192" rx="12"></rect>
                <g id="Group" transform="translate(42.592593, 39.296296)" fill="#FFFFFF">
                    <path d="M69.1676885,54.8741956 C69.0522393,42.0434112 79.6735651,35.8011928 80.1592479,35.5105793 C74.1439468,26.7404217 64.8204292,25.5421387 61.5440608,25.4465945 C53.7134207,24.6225261 46.11766,30.1322393 42.1286914,30.1322393 C38.0601026,30.1322393 31.9174093,25.5262146 25.2969953,25.6615689 C16.777641,25.7929421 8.80766572,30.7254093 4.43652042,38.3848661 C-4.58444065,54.0023552 2.14346059,76.9528585 10.786226,89.5766306 C15.1095992,95.7591339 20.1614967,102.662199 26.7739487,102.419358 C33.2430845,102.152631 35.6595556,98.2950351 43.4663096,98.2950351 C51.2014055,98.2950351 53.4705793,102.419358 60.2144046,102.264099 C67.1572802,102.152631 71.5284255,96.0537284 75.7005204,89.815491 C80.6966838,82.7292991 82.7031111,75.7505945 82.7827312,75.3923039 C82.61951,75.3365698 69.2990617,70.2528243 69.1676885,54.8741956 L69.1676885,54.8741956 Z" id="Shape"></path>
                    <path d="M56.4284672,17.1422146 C59.907867,12.7909744 62.288509,6.87121747 61.6276619,0.863878443 C56.5916885,1.08681481 50.293736,4.34725926 46.6670389,8.60295537 C43.4583476,12.3530636 40.5920228,18.4997379 41.33249,24.2801595 C46.9895005,24.7021462 52.7977892,21.4257778 56.4284672,17.1422146 L56.4284672,17.1422146 Z" id="Shape"></path>
                </g>
                <g id="Group" transform="translate(159.022792, 87.068376)" fill="#FFFFFF">
                    <path d="M46.3588224,53.7595138 L37.3179563,53.7595138 L32.365584,38.1977588 L15.1517113,38.1977588 L10.4342184,53.7595138 L1.63221273,53.7595138 L18.6868452,0.780277303 L29.2205888,0.780277303 L46.3588224,53.7595138 L46.3588224,53.7595138 Z M30.8727066,31.6689079 L26.3940741,17.8349098 C25.9203343,16.4216524 25.0325698,13.0935309 23.7228186,7.85452612 L23.5635783,7.85452612 C23.0420665,10.1077759 22.2020741,13.4358974 21.0475821,17.8349098 L16.6485698,31.6689079 L30.8727066,31.6689079 L30.8727066,31.6689079 Z" id="Shape"></path>
                    <path d="M90.2175726,34.1888851 C90.2175726,40.6858879 88.4619487,45.8213865 84.9507009,49.5913998 C81.8057056,52.9473884 77.9003381,54.6233922 73.2385793,54.6233922 C68.2065869,54.6233922 64.5918329,52.8160152 62.3903362,49.2012612 L62.2310959,49.2012612 L62.2310959,69.3252498 L53.7435897,69.3252498 L53.7435897,28.133774 C53.7435897,24.0492612 53.6361026,19.8572612 53.4290902,15.557774 L60.8934777,15.557774 L61.3672175,21.6128851 L61.5264577,21.6128851 C64.3569535,17.0506515 68.6524596,14.7735157 74.4169573,14.7735157 C78.9234568,14.7735157 82.6855081,16.5530256 85.6951491,20.1160266 C88.7127521,23.6830085 90.2175726,28.3726344 90.2175726,34.1888851 L90.2175726,34.1888851 Z M81.5708262,34.4994036 C81.5708262,30.7811434 80.7348148,27.7157683 79.05483,25.3032783 C77.2195859,22.7872821 74.7553428,21.529284 71.6660817,21.529284 C69.5720722,21.529284 67.669151,22.2299411 65.9692612,23.6113504 C64.2653903,25.0047028 63.1507085,26.8240228 62.6291966,29.0772726 C62.3664501,30.1282583 62.2350769,30.9881557 62.2350769,31.6649269 L62.2350769,38.0345375 C62.2350769,40.8132802 63.0870123,43.1580931 64.7908832,45.0729573 C66.494754,46.9878215 68.7081937,47.9432631 71.4312023,47.9432631 C74.6279506,47.9432631 77.1160798,46.709151 78.8955897,44.2488889 C80.6790807,41.7846458 81.5708262,38.5361443 81.5708262,34.4994036 L81.5708262,34.4994036 Z" id="Shape"></path>
                    <path d="M134.155943,34.1888851 C134.155943,40.6858879 132.400319,45.8213865 128.88509,49.5913998 C125.744076,52.9473884 121.838708,54.6233922 117.17695,54.6233922 C112.144957,54.6233922 108.530203,52.8160152 106.332688,49.2012612 L106.173447,49.2012612 L106.173447,69.3252498 L97.6859411,69.3252498 L97.6859411,28.133774 C97.6859411,24.0492612 97.5784539,19.8572612 97.3714416,15.557774 L104.835829,15.557774 L105.309569,21.6128851 L105.468809,21.6128851 C108.295324,17.0506515 112.59083,14.7735157 118.359309,14.7735157 C122.861827,14.7735157 126.623878,16.5530256 129.641481,20.1160266 C132.647142,23.6830085 134.155943,28.3726344 134.155943,34.1888851 L134.155943,34.1888851 Z M125.509197,34.4994036 C125.509197,30.7811434 124.669204,27.7157683 122.989219,25.3032783 C121.153975,22.7872821 118.697694,21.529284 115.604452,21.529284 C113.506462,21.529284 111.607521,22.2299411 109.903651,23.6113504 C108.19978,25.0047028 107.089079,26.8240228 106.567567,29.0772726 C106.308802,30.1282583 106.173447,30.9881557 106.173447,31.6649269 L106.173447,38.0345375 C106.173447,40.8132802 107.025383,43.1580931 108.721292,45.0729573 C110.425162,46.9838405 112.638602,47.9432631 115.369573,47.9432631 C118.566321,47.9432631 121.05445,46.709151 122.83396,44.2488889 C124.617451,41.7846458 125.509197,38.5361443 125.509197,34.4994036 L125.509197,34.4994036 Z" id="Shape"></path>
                    <path d="M183.281565,38.902397 C183.281565,43.4088965 181.717029,47.0754036 178.576015,49.9058993 C175.124482,52.9991415 170.319407,54.5437721 164.144866,54.5437721 C158.444065,54.5437721 153.873869,53.4450142 150.414374,51.2435176 L152.380991,44.1692688 C156.107214,46.4225185 160.195708,47.5531244 164.650454,47.5531244 C167.847202,47.5531244 170.335331,46.8285812 172.122803,45.3874568 C173.902313,43.9463324 174.790078,42.0115632 174.790078,39.5990731 C174.790078,37.4493295 174.057573,35.6379715 172.588581,34.1689801 C171.127552,32.6999886 168.687195,31.3345033 165.279453,30.0725242 C156.003708,26.6130294 151.369816,21.545208 151.369816,14.8810028 C151.369816,10.5257816 152.994066,6.95481861 156.246549,4.17607597 C159.487088,1.39335233 163.810462,0.00398100665 169.216669,0.00398100665 C174.037668,0.00398100665 178.04256,0.843973409 181.239309,2.51997721 L179.117432,9.43896676 C176.131677,7.81471605 172.755783,7.00259069 168.977808,7.00259069 C165.992053,7.00259069 163.659183,7.73907692 161.98716,9.20408737 C160.573903,10.5138386 159.865284,12.1102222 159.865284,14.0012004 C159.865284,16.0952099 160.673428,17.8269478 162.297679,19.188452 C163.710936,20.4464501 166.278686,21.8079544 170.004908,23.2769459 C174.56316,25.1121899 177.911187,27.2579525 180.064912,29.7182146 C182.210674,32.1705147 183.281565,35.2398708 183.281565,38.902397 L183.281565,38.902397 Z" id="Shape"></path>
                    <path d="M211.343681,21.9273846 L201.988315,21.9273846 L201.988315,40.4748946 C201.988315,45.1923875 203.636452,47.5491434 206.940688,47.5491434 C208.457451,47.5491434 209.715449,47.4177702 210.710701,47.1550237 L210.94558,53.6002735 C209.273557,54.2252915 207.072061,54.5397911 204.345071,54.5397911 C200.993064,54.5397911 198.373561,53.5166724 196.482583,51.474416 C194.599567,49.4281785 193.652087,45.9965508 193.652087,41.1755518 L193.652087,21.9194226 L188.078678,21.9194226 L188.078678,15.549812 L193.652087,15.549812 L193.652087,8.55518329 L201.988315,6.03918708 L201.988315,15.549812 L211.343681,15.549812 L211.343681,21.9273846 L211.343681,21.9273846 Z" id="Shape"></path>
                    <path d="M253.554294,34.3441443 C253.554294,40.2161292 251.87431,45.0371282 248.522302,48.8071415 C245.007073,52.688623 240.341333,54.6233922 234.525083,54.6233922 C228.919825,54.6233922 224.457117,52.7642621 221.128995,49.0460019 C217.800874,45.3277417 216.136813,40.6341349 216.136813,34.9771244 C216.136813,29.0573675 217.848646,24.2085014 221.284255,20.4384881 C224.711901,16.6644938 229.337831,14.7774967 235.154082,14.7774967 C240.759339,14.7774967 245.26982,16.6366268 248.67358,20.358868 C251.930044,23.969641 253.554294,28.6313998 253.554294,34.3441443 L253.554294,34.3441443 Z M244.748308,34.6188338 C244.748308,31.0956429 243.995897,28.0740589 242.471172,25.5540817 C240.691662,22.5046306 238.147799,20.983886 234.851525,20.983886 C231.439802,20.983886 228.848167,22.5086116 227.068657,25.5540817 C225.543932,28.0780399 224.791521,31.147396 224.791521,34.7780741 C224.791521,38.301265 225.543932,41.322849 227.068657,43.8388452 C228.903901,46.8882963 231.46767,48.4090408 234.775886,48.4090408 C238.016425,48.4090408 240.560289,46.8564482 242.395533,43.7592251 C243.960068,41.1914758 244.748308,38.1380437 244.748308,34.6188338 L244.748308,34.6188338 Z" id="Shape"></path>
                    <path d="M281.14267,23.0221614 C280.302678,22.8669022 279.406952,22.7872821 278.467434,22.7872821 C275.481679,22.7872821 273.172695,23.9139069 271.548444,26.1711377 C270.135187,28.161641 269.426568,30.6776372 269.426568,33.7151453 L269.426568,53.7595138 L260.943043,53.7595138 L261.022663,27.5883761 C261.022663,23.1853827 260.915176,19.176509 260.704182,15.561755 L268.096912,15.561755 L268.40743,22.8708832 L268.64231,22.8708832 C269.538036,20.358868 270.951293,18.3365166 272.886063,16.8197531 C274.777041,15.4542678 276.819297,14.7735157 279.020794,14.7735157 C279.805052,14.7735157 280.513671,14.8292498 281.14267,14.9287749 L281.14267,23.0221614 L281.14267,23.0221614 Z" id="Shape"></path>
                    <path d="M319.101569,32.8512669 C319.101569,34.3720114 319.002044,35.6538955 318.79105,36.7009003 L293.328532,36.7009003 C293.428057,40.4748946 294.658188,43.3611244 297.022906,45.3516277 C299.168669,47.1311377 301.94343,48.0228832 305.351172,48.0228832 C309.121185,48.0228832 312.560775,47.4217512 315.654017,46.2155062 L316.983673,52.107396 C313.368919,53.6838746 309.10128,54.468133 304.176775,54.468133 C298.253037,54.468133 293.603221,52.724452 290.219366,49.2410712 C286.843472,45.7576904 285.151544,41.0800076 285.151544,35.2120038 C285.151544,29.4514872 286.724042,24.6543742 289.873018,20.8286268 C293.169292,16.744114 297.624038,14.7018575 303.229295,14.7018575 C308.735028,14.7018575 312.903142,16.744114 315.733637,20.8286268 C317.974944,24.0731472 319.101569,28.0860019 319.101569,32.8512669 L319.101569,32.8512669 Z M311.008182,30.6497702 C311.063916,28.133774 310.510557,25.9601443 309.360046,24.1249003 C307.891054,21.7641633 305.633823,20.5857854 302.596315,20.5857854 C299.821554,20.5857854 297.564323,21.7362963 295.840547,24.0452802 C294.42729,25.8805242 293.587297,28.0820209 293.328532,30.6457892 L311.008182,30.6457892 L311.008182,30.6497702 Z" id="Shape"></path>
                </g>
                <g id="Group" transform="translate(163.003799, 39.296296)" fill="#FFFFFF">
                    <path d="M24.0850902,15.9598557 C24.0850902,20.6455005 22.6797949,24.1726724 19.8731852,26.5413713 C17.2735878,28.726944 13.5792137,29.8217208 8.79404368,29.8217208 C6.42136372,29.8217208 4.39105033,29.7182146 2.69116049,29.5112023 L2.69116049,3.90934853 C4.9085812,3.55105793 7.29718519,3.36793162 9.87687749,3.36793162 C14.4351301,3.36793162 17.8707388,4.35920228 20.1876847,6.34174359 C22.783301,8.58305033 24.0850902,11.7877607 24.0850902,15.9598557 L24.0850902,15.9598557 Z M19.6860779,16.0753048 C19.6860779,13.0377968 18.8819145,10.7089079 17.2735878,9.08465717 C15.6652612,7.46438746 13.3164672,6.65226211 10.2232251,6.65226211 C8.90949288,6.65226211 7.79083001,6.73984425 6.86325546,6.92297056 L6.86325546,26.3861121 C7.37680532,26.4657322 8.31632289,26.5015613 9.68180817,26.5015613 C12.8745755,26.5015613 15.3388186,25.6137968 17.0745375,23.8382678 C18.8102564,22.0627388 19.6860779,19.4750845 19.6860779,16.0753048 L19.6860779,16.0753048 Z" id="Shape"></path>
                    <path d="M47.4098082,20.0523305 C47.4098082,22.9385603 46.5857398,25.3032783 44.937603,27.1584274 C43.2098462,29.0653295 40.9207673,30.0167901 38.0624046,30.0167901 C35.307548,30.0167901 33.1140133,29.1051396 31.4778196,27.2738765 C29.8456068,25.4465945 29.0295005,23.1415916 29.0295005,20.362849 C29.0295005,17.4567142 29.8694929,15.0720912 31.5574397,13.2209231 C33.2453865,11.369755 35.5145603,10.4421804 38.3729231,10.4421804 C41.1277797,10.4421804 43.3412194,11.353831 45.0172232,13.181113 C46.6096258,14.956642 47.4098082,17.2497018 47.4098082,20.0523305 L47.4098082,20.0523305 Z M43.0824539,20.1876847 C43.0824539,18.4559468 42.7082393,16.9710313 41.9637911,15.7329383 C41.0879696,14.2360798 39.8419145,13.4876505 38.2216448,13.4876505 C36.545641,13.4876505 35.2717189,14.2360798 34.3958974,15.7329383 C33.6474682,16.9710313 33.2772346,18.4798329 33.2772346,20.2633238 C33.2772346,21.9950617 33.6514492,23.4799772 34.3958974,24.7180703 C35.2995859,26.2149288 36.557584,26.963358 38.1818348,26.963358 C39.7742374,26.963358 41.0242735,26.2029858 41.923981,24.6782602 C42.6962963,23.4162811 43.0824539,21.9194226 43.0824539,20.1876847 L43.0824539,20.1876847 Z" id="Shape"></path>
                    <path d="M78.6845964,10.8243571 L72.8126116,29.5908224 L68.9908452,29.5908224 L66.5584501,21.4417018 C65.9413941,19.4074074 65.4397873,17.385056 65.0496486,15.3786287 L64.9740095,15.3786287 C64.6117379,17.4407901 64.1101311,19.4591605 63.465208,21.4417018 L60.8815347,29.5908224 L57.0159772,29.5908224 L51.494321,10.8243571 L55.7818651,10.8243571 L57.9037417,19.745793 C58.4172915,21.8557265 58.8392783,23.8661349 59.1776638,25.769056 L59.2533029,25.769056 C59.5638215,24.2005394 60.0773713,22.2020741 60.8019145,19.785603 L63.465208,10.8283381 L66.8649877,10.8283381 L69.4168129,19.5945147 C70.0338689,21.7323153 70.5354758,23.7904957 70.9216334,25.773037 L71.0370826,25.773037 C71.3197341,23.8422488 71.7457018,21.7840684 72.3110047,19.5945147 L74.5881406,10.8283381 L78.6845964,10.8283381 L78.6845964,10.8243571 Z" id="Shape"></path>
                    <path d="M100.313406,29.5908224 L96.1413105,29.5908224 L96.1413105,18.8421045 C96.1413105,15.5299069 94.8833124,13.8738082 92.3593542,13.8738082 C91.1212612,13.8738082 90.1220285,14.3276429 89.3457322,15.2392934 C88.5773979,16.150944 88.1872593,17.2258158 88.1872593,18.4559468 L88.1872593,29.5868414 L84.0151643,29.5868414 L84.0151643,16.186773 C84.0151643,14.5386363 83.9634112,12.7511643 83.863886,10.8163951 L87.5303932,10.8163951 L87.7254625,13.750397 L87.8409117,13.750397 C88.3265945,12.8387464 89.0511377,12.0863362 90.0025983,11.4852042 C91.1332042,10.784547 92.3991643,10.4302374 93.7845546,10.4302374 C95.5361975,10.4302374 96.993246,10.9955404 98.1517189,12.1301273 C99.5928433,13.5194986 100.313406,15.593603 100.313406,18.3484596 L100.313406,29.5908224 L100.313406,29.5908224 Z" id="Shape"></path>
                    <polygon id="Shape" points="111.818515 29.5908224 107.650401 29.5908224 107.650401 2.2134397 111.818515 2.2134397"></polygon>
                    <path d="M136.381326,20.0523305 C136.381326,22.9385603 135.557257,25.3032783 133.909121,27.1584274 C132.181364,29.0653295 129.888304,30.0167901 127.033922,30.0167901 C124.275085,30.0167901 122.08155,29.1051396 120.449337,27.2738765 C118.817124,25.4465945 118.001018,23.1415916 118.001018,20.362849 C118.001018,17.4567142 118.84101,15.0720912 120.528957,13.2209231 C122.216904,11.369755 124.486078,10.4421804 127.34046,10.4421804 C130.099297,10.4421804 132.308756,11.353831 133.988741,13.181113 C135.581143,14.956642 136.381326,17.2497018 136.381326,20.0523305 L136.381326,20.0523305 Z M132.049991,20.1876847 C132.049991,18.4559468 131.675776,16.9710313 130.931328,15.7329383 C130.059487,14.2360798 128.809451,13.4876505 127.193162,13.4876505 C125.513178,13.4876505 124.239255,14.2360798 123.367415,15.7329383 C122.618986,16.9710313 122.248752,18.4798329 122.248752,20.2633238 C122.248752,21.9950617 122.622967,23.4799772 123.367415,24.7180703 C124.271104,26.2149288 125.529102,26.963358 127.153352,26.963358 C128.745755,26.963358 129.99181,26.2029858 130.891518,24.6782602 C131.667814,23.4162811 132.049991,21.9194226 132.049991,20.1876847 L132.049991,20.1876847 Z" id="Shape"></path>
                    <path d="M156.572991,29.5908224 L152.826864,29.5908224 L152.516346,27.4291358 L152.400896,27.4291358 C151.119012,29.1529117 149.29173,30.0167901 146.91905,30.0167901 C145.147502,30.0167901 143.71434,29.4475062 142.635487,28.3169003 C141.65616,27.2898006 141.166496,26.0118974 141.166496,24.4951339 C141.166496,22.2020741 142.121937,20.4544122 144.044764,19.2441861 C145.963609,18.0339601 148.662731,17.4407901 152.13815,17.4686572 L152.13815,17.1183286 C152.13815,14.6461235 150.840342,13.4120114 148.240745,13.4120114 C146.389576,13.4120114 144.757364,13.8777892 143.348087,14.8013827 L142.500133,12.0624501 C144.243814,10.9835973 146.397538,10.4421804 148.937421,10.4421804 C153.842021,10.4421804 156.302283,13.0298348 156.302283,18.2051434 L156.302283,25.1161709 C156.302283,26.9912251 156.393846,28.4841026 156.572991,29.5908224 L156.572991,29.5908224 Z M152.241656,23.1415916 L152.241656,20.2473998 C147.639613,20.1677797 145.338591,21.4297588 145.338591,24.0293561 C145.338591,25.0086838 145.601337,25.741189 146.138773,26.2308528 C146.676209,26.7205166 147.360942,26.963358 148.177048,26.963358 C149.09268,26.963358 149.948596,26.6727445 150.728874,26.0954986 C151.513132,25.5142716 151.994834,24.7777854 152.173979,23.8740969 C152.21777,23.6710655 152.241656,23.4242431 152.241656,23.1415916 L152.241656,23.1415916 Z" id="Shape"></path>
                    <path d="M180.279886,29.5908224 L176.57755,29.5908224 L176.382481,26.5772004 L176.267031,26.5772004 C175.084672,28.8702602 173.070283,30.0167901 170.239787,30.0167901 C167.978575,30.0167901 166.095559,29.1290256 164.602682,27.3534967 C163.109804,25.5779677 162.365356,23.2729649 162.365356,20.4424691 C162.365356,17.4049611 163.1735,14.944699 164.797751,13.0656638 C166.370249,11.3140209 168.297056,10.4381994 170.590116,10.4381994 C173.110093,10.4381994 174.873679,11.2861538 175.876893,12.9860437 L175.956513,12.9860437 L175.956513,2.2134397 L180.132589,2.2134397 L180.132589,24.534944 C180.132589,26.362226 180.180361,28.0461918 180.279886,29.5908224 L180.279886,29.5908224 Z M175.956513,21.6765812 L175.956513,18.54751 C175.956513,18.0060931 175.916703,17.5681823 175.841064,17.2337778 C175.606184,16.2305641 175.100596,15.3865907 174.332262,14.7058386 C173.555966,14.0250864 172.620429,13.6827198 171.541576,13.6827198 C169.985003,13.6827198 168.766815,14.2997759 167.871088,15.5378689 C166.983324,16.775962 166.53347,18.3564217 166.53347,20.2872099 C166.53347,22.142359 166.959438,23.6471795 167.815354,24.8056524 C168.719043,26.0397645 169.937231,26.6568205 171.461956,26.6568205 C172.831423,26.6568205 173.926199,26.1432707 174.75823,25.1121899 C175.562393,24.1607293 175.956513,23.0141994 175.956513,21.6765812 L175.956513,21.6765812 Z" id="Shape"></path>
                    <path d="M215.961649,20.0523305 C215.961649,22.9385603 215.13758,25.3032783 213.489443,27.1584274 C211.761687,29.0653295 209.476589,30.0167901 206.614245,30.0167901 C203.863369,30.0167901 201.669835,29.1051396 200.02966,27.2738765 C198.397447,25.4465945 197.581341,23.1415916 197.581341,20.362849 C197.581341,17.4567142 198.421333,15.0720912 200.10928,13.2209231 C201.797227,11.369755 204.066401,10.4421804 206.928745,10.4421804 C209.67962,10.4421804 211.897041,11.353831 213.569064,13.181113 C215.161466,14.956642 215.961649,17.2497018 215.961649,20.0523305 L215.961649,20.0523305 Z M211.638275,20.1876847 C211.638275,18.4559468 211.264061,16.9710313 210.519613,15.7329383 C209.63981,14.2360798 208.397736,13.4876505 206.773485,13.4876505 C205.101462,13.4876505 203.82754,14.2360798 202.947738,15.7329383 C202.199309,16.9710313 201.829075,18.4798329 201.829075,20.2633238 C201.829075,21.9950617 202.20329,23.4799772 202.947738,24.7180703 C203.851426,26.2149288 205.109425,26.963358 206.733675,26.963358 C208.326078,26.963358 209.580095,26.2029858 210.479802,24.6782602 C211.248137,23.4162811 211.638275,21.9194226 211.638275,20.1876847 L211.638275,20.1876847 Z" id="Shape"></path>
                    <path d="M238.394621,29.5908224 L234.226507,29.5908224 L234.226507,18.8421045 C234.226507,15.5299069 232.968509,13.8738082 230.44057,13.8738082 C229.202477,13.8738082 228.203244,14.3276429 227.430929,15.2392934 C226.658613,16.150944 226.272456,17.2258158 226.272456,18.4559468 L226.272456,29.5868414 L222.09638,29.5868414 L222.09638,16.186773 C222.09638,14.5386363 222.048608,12.7511643 221.949083,10.8163951 L225.611609,10.8163951 L225.806678,13.750397 L225.922127,13.750397 C226.411791,12.8387464 227.136334,12.0863362 228.083814,11.4852042 C229.218401,10.784547 230.48038,10.4302374 231.869751,10.4302374 C233.617413,10.4302374 235.074462,10.9955404 236.232934,12.1301273 C237.67804,13.5194986 238.394621,15.593603 238.394621,18.3484596 L238.394621,29.5908224 L238.394621,29.5908224 Z" id="Shape"></path>
                    <path d="M266.472661,13.9494473 L261.878579,13.9494473 L261.878579,23.0659525 C261.878579,25.3828984 262.694686,26.5413713 264.310974,26.5413713 C265.059404,26.5413713 265.680441,26.4776752 266.170104,26.346302 L266.277592,29.5112023 C265.453523,29.8217208 264.370689,29.9769801 263.037052,29.9769801 C261.388915,29.9769801 260.107031,29.4753732 259.179457,28.4721595 C258.247901,27.4689459 257.786104,25.7809991 257.786104,23.4123001 L257.786104,13.9494473 L255.043191,13.9494473 L255.043191,10.8243571 L257.786104,10.8243571 L257.786104,7.38476733 L261.874598,6.15065527 L261.874598,10.8203761 L266.46868,10.8203761 L266.46868,13.9494473 L266.472661,13.9494473 Z" id="Shape"></path>
                    <path d="M288.559286,29.5908224 L284.38321,29.5908224 L284.38321,18.9217246 C284.38321,15.557774 283.125212,13.8738082 280.605235,13.8738082 C278.670465,13.8738082 277.348771,14.8491548 276.624228,16.7998481 C276.500817,17.2098917 276.429159,17.7114986 276.429159,18.3006876 L276.429159,29.5868414 L272.261045,29.5868414 L272.261045,2.2134397 L276.429159,2.2134397 L276.429159,13.5234796 L276.508779,13.5234796 C277.822511,11.4652991 279.705527,10.4381994 282.145884,10.4381994 C283.873641,10.4381994 285.302822,11.0035024 286.437409,12.1380893 C287.850667,13.5513466 288.559286,15.6533181 288.559286,18.4320608 L288.559286,29.5908224 L288.559286,29.5908224 Z" id="Shape"></path>
                    <path d="M311.342587,19.3198253 C311.342587,20.0682545 311.286853,20.6972536 311.187328,21.2108034 L298.675024,21.2108034 C298.730758,23.0659525 299.327909,24.4792099 300.486382,25.4585375 C301.54533,26.334359 302.910815,26.7722697 304.582838,26.7722697 C306.434006,26.7722697 308.121953,26.4776752 309.642697,25.8845052 L310.295582,28.7826781 C308.516072,29.5549934 306.422063,29.941151 303.99763,29.941151 C301.091495,29.941151 298.802416,29.0852346 297.146317,27.3734017 C295.482256,25.6615689 294.658188,23.364528 294.658188,20.4822792 C294.658188,17.6517835 295.426522,15.2950275 296.975134,13.4159924 C298.591423,11.4095651 300.776995,10.4063514 303.535833,10.4063514 C306.234955,10.4063514 308.285174,11.4095651 309.670564,13.4159924 C310.789227,15.0083951 311.342587,16.9789934 311.342587,19.3198253 L311.342587,19.3198253 Z M307.36158,18.2409725 C307.393428,17.0028794 307.118739,15.9359696 306.553436,15.0362621 C305.828893,13.8777892 304.726154,13.2965622 303.233276,13.2965622 C301.871772,13.2965622 300.761071,13.8618651 299.913117,14.996452 C299.220422,15.9001406 298.810378,16.9789934 298.675024,18.2409725 L307.36158,18.2409725 L307.36158,18.2409725 Z" id="Shape"></path>
                </g>
            </g>
        </g>
    </g>
</svg>